<svg width="36" height="36" viewBox="0 0 36 36" fill="none" xmlns="http://www.w3.org/2000/svg">
<path d="M3.51924 0.112499C2.99893 0.253124 2.5208 0.527344 2.13408 0.907032C1.71924 1.30781 1.52236 1.62422 1.31846 2.19375L1.15674 2.63672V16.8398V31.043L1.31846 31.4859C1.70518 32.5688 2.49268 33.293 3.54736 33.5742C3.91299 33.6656 5.19268 33.6797 13.8622 33.6797H23.7622L23.7481 31.275L23.7271 28.8633L23.1997 28.582C20.9567 27.3797 19.3255 25.4109 18.5942 23.0414L18.4044 22.4297H11.8864C5.82549 22.4297 5.36143 22.4227 5.12939 22.3031C4.37705 21.9305 4.37705 20.8195 5.12939 20.4469C5.36143 20.3273 5.82549 20.3203 11.795 20.3203H18.2075V19.7719C18.2075 19.4766 18.2708 18.9352 18.3411 18.5766L18.4677 17.9297H11.9216C5.83252 17.9297 5.36143 17.9227 5.12939 17.8031C4.37705 17.4305 4.37705 16.3195 5.12939 15.9469C5.36143 15.8273 5.85361 15.8203 12.3364 15.8203H19.2974L19.6067 15.3141C20.0216 14.6461 20.8302 13.6898 21.3786 13.2258C23.0872 11.7844 25.0067 11.025 27.1935 10.9195L28.0513 10.8773V9.9V8.92969H24.0294C19.5364 8.92969 19.6841 8.94375 19.3536 8.44453L19.1919 8.20547V4.10625V0L11.5489 0.00703049C5.09424 0.00703049 3.84268 0.0281258 3.51924 0.112499ZM15.0435 4.69688C15.1771 4.76016 15.3599 4.92188 15.4442 5.05547L15.606 5.29453V9V12.7055L15.4442 12.9445C15.1067 13.4508 15.3388 13.4297 10.0864 13.4297C4.83408 13.4297 5.06611 13.4508 4.72861 12.9445L4.56689 12.7055V9V5.29453L4.72861 5.05547C5.06611 4.54922 4.83408 4.57031 10.0864 4.57031C14.4317 4.57031 14.8185 4.57734 15.0435 4.69688ZM13.356 24.9469C14.1083 25.3195 14.1083 26.4305 13.356 26.8031C13.131 26.9156 12.7864 26.9297 9.24268 26.9297C5.69893 26.9297 5.35439 26.9156 5.12939 26.8031C4.37705 26.4305 4.37705 25.3195 5.12939 24.9469C5.35439 24.8344 5.69893 24.8203 9.24268 24.8203C12.7864 24.8203 13.131 24.8344 13.356 24.9469Z" fill="white"/>
<path d="M6.60938 9V11.3203H10.0898H13.5703V9V6.67969H10.0898H6.60938V9Z" fill="white"/>
<path d="M21.2344 3.76172V6.82031H24.307H27.3867L26.5781 5.99063C24.532 3.90234 21.3328 0.703125 21.2906 0.703125C21.2555 0.703125 21.2344 2.08125 21.2344 3.76172Z" fill="white"/>
<path d="M26.4658 13.0857C25.4322 13.2333 24.0611 13.8169 23.1822 14.4778C22.1275 15.2794 21.2205 16.4888 20.7635 17.7052C20.433 18.5982 20.3135 19.2661 20.3135 20.2857C20.3135 21.3052 20.433 21.9732 20.7635 22.8661C21.2135 24.0685 22.1064 25.2708 23.14 26.0583C24.033 26.7474 25.2494 27.2747 26.3955 27.4575C29.7846 28.013 33.1455 26.0653 34.3479 22.8661C34.6783 21.9732 34.7979 21.3052 34.7979 20.2857C34.7979 18.8724 34.4744 17.6911 33.7713 16.5169C33.3775 15.856 32.5268 14.9208 31.8939 14.4427C30.4104 13.3317 28.3572 12.8185 26.4658 13.0857Z" fill="white"/>
<path d="M25.7979 31.8305C25.7979 33.0961 25.833 34.3266 25.8682 34.5586C25.9525 35.0859 26.2127 35.4656 26.6768 35.7539C26.9721 35.9367 27.0846 35.9648 27.5205 35.9648C27.9564 35.9648 28.0689 35.9367 28.3643 35.7539C28.8283 35.4656 29.0885 35.0859 29.1729 34.5586C29.208 34.3266 29.2432 33.1031 29.2432 31.8375V29.5313L28.8072 29.5875C28.2307 29.6508 26.8736 29.6508 26.276 29.5805L25.7979 29.5242V31.8305Z" fill="white"/>
</svg>
