<svg width="80" height="120" viewBox="0 0 80 120" fill="none" xmlns="http://www.w3.org/2000/svg">
<path d="M40 120C62.0914 120 80 118.352 80 116.32C80 114.287 62.0914 112.639 40 112.639C17.9086 112.639 0 114.287 0 116.32C0 118.352 17.9086 120 40 120Z" fill="#404040" fill-opacity="0.6"/>
<path d="M40 120C62.0914 120 80 118.352 80 116.32C80 114.287 62.0914 112.639 40 112.639C17.9086 112.639 0 114.287 0 116.32C0 118.352 17.9086 120 40 120Z" fill="white" fill-opacity="0.1"/>
<path d="M71.3087 49.8153H60.6589V31.4294C60.6589 19.9952 51.39 10.6919 39.9981 10.6919C28.6062 10.6919 19.3374 19.9952 19.3374 31.4294V49.8153H8.6875V31.4294C8.6875 14.101 22.7339 0.00244141 39.9981 0.00244141C57.2624 0.00244141 71.3087 14.101 71.3087 31.4294V49.8153Z" fill="#404040" fill-opacity="0.6"/>
<path d="M71.3087 49.8153H60.6589V31.4294C60.6589 19.9952 51.39 10.6919 39.9981 10.6919C28.6062 10.6919 19.3374 19.9952 19.3374 31.4294V49.8153H8.6875V31.4294C8.6875 14.101 22.7339 0.00244141 39.9981 0.00244141C57.2624 0.00244141 71.3087 14.101 71.3087 31.4294V49.8153Z" fill="white" fill-opacity="0.1"/>
<path d="M71.3098 31.4293V49.8151H60.66V44.898C64.9199 43.1877 66.6239 39.7671 66.6239 35.0637V31.4293C66.6239 14.8894 53.8303 1.29653 37.6562 0.0896534C37.828 0.0758606 38.0021 0.0666654 38.1761 0.0551714C38.2105 0.0551714 38.2449 0.0505737 38.2792 0.0482749C38.4006 0.0413785 38.5243 0.0344821 38.6457 0.0321833C38.6938 0.0321833 38.7441 0.0275857 38.7922 0.0252869C38.8609 0.0252869 38.9297 0.0183905 39.0007 0.0183905C39.1381 0.011494 39.2732 0.00919523 39.4106 0.00689642C39.6076 0.00229881 39.8045 0 40.0015 0C57.268 0 71.3121 14.0963 71.3121 31.427L71.3098 31.4293Z" fill="white" fill-opacity="0.05"/>
<path d="M73.3324 45.9669H6.66653C4.13674 45.9669 2.08594 48.0253 2.08594 50.5645V103.582C2.08594 106.121 4.13674 108.18 6.66653 108.18H73.3324C75.8622 108.18 77.913 106.121 77.913 103.582V50.5645C77.913 48.0253 75.8622 45.9669 73.3324 45.9669Z" fill="#068075"/>
<path d="M47.6556 86.8765C47.9969 89.0259 46.3433 90.9684 44.1767 90.9684H35.8194C33.6528 90.9684 32.0015 89.0259 32.3404 86.8765L33.5291 79.3893C31.7404 77.6744 30.625 75.2583 30.625 72.5825C30.625 67.3872 34.8208 63.1758 39.9969 63.1758C45.173 63.1758 49.3688 67.3872 49.3688 72.5825C49.3688 75.2583 48.2557 77.6744 46.4647 79.3893L47.6533 86.8765H47.6556Z" fill="white" fill-opacity="0.15"/>
<path d="M77.9123 50.2427V103.904C77.9123 106.267 76.0068 108.18 73.6523 108.18H19.125C41.2767 108.18 64.9194 104.545 64.9194 78.8904V57.0839C64.9194 50.9438 59.961 45.9669 53.8436 45.9669H73.6523C76.0068 45.9669 77.9123 47.8795 77.9123 50.2427Z" fill="white" fill-opacity="0.1"/>
<path d="M5.70703 51.222V79.7456C5.70703 79.7456 15.0812 56.5714 34.5235 49.6014H7.32169C6.43076 49.6014 5.70703 50.3278 5.70703 51.222Z" fill="white" fill-opacity="0.15"/>
<path d="M31.903 73.1182C31.903 75.794 33.0161 78.2101 34.8071 79.925L33.6184 87.4122C33.3917 88.8328 34.0398 90.1639 35.1277 90.9018C33.3138 90.5432 32.0381 88.7915 32.3404 86.8789L33.5291 79.3916C31.7404 77.6767 30.625 75.2607 30.625 72.5849C30.625 67.3896 34.8208 63.1782 39.9969 63.1782C41.5199 63.1782 42.9605 63.5437 44.2316 64.1919C43.3041 63.8793 42.3078 63.7138 41.2749 63.7138C36.0988 63.7138 31.903 67.9252 31.903 73.1205V73.1182Z" fill="white" fill-opacity="0.15"/>
<path d="M33.6073 2.35419C33.6073 2.35419 12.0946 6.51273 10.3906 29.933H14.4376C14.4376 29.933 15.2896 11.3287 33.6073 2.35419Z" fill="white" fill-opacity="0.1"/>
</svg>
