<svg width="70" height="70" viewBox="0 0 70 70" fill="none" xmlns="http://www.w3.org/2000/svg">
<path d="M35.0001 0L4.16797 17.4923V52.5077L35.0001 70L45.7548 63.8985L44.7432 62.1156L36.0249 67.0618V54.4216L60.5326 53.1576L46.793 60.9526L47.8046 62.7356L65.8321 52.5078V17.4923L35.0001 0ZM33.1696 52.3275L6.79557 50.9672L18.5336 26.9772L24.6447 37.5622L26.4199 36.5374L20.2339 25.8229H49.766L35.0001 51.3983L27.489 38.3887L25.7139 39.4136L33.1696 52.3275ZM51.8713 23.4825L45.2787 14.0688L43.5997 15.2446L49.5724 23.7731H20.4281L35.0001 2.96502L42.3598 13.474L44.0388 12.2983L38.4455 4.31143L62.6389 18.0373L51.8713 23.4825ZM18.1289 23.4825L7.36131 18.0373L31.5546 4.31143L18.1289 23.4825ZM17.0938 25.2561L6.21779 47.4843V19.756L17.0938 25.2561ZM33.9753 54.4216V67.0618L9.46732 53.1576L33.9753 54.4216ZM51.4665 26.9772L63.2045 50.9672L36.8305 52.3275L51.4665 26.9772ZM52.9064 25.2561L63.7823 19.756V47.4842L52.9064 25.2561Z" fill="black"/>
<path d="M24.7512 27.8257H26.801V29.8755H24.7512V27.8257Z" fill="black"/>
<path d="M28.8508 27.8257H30.9007V29.8755H28.8508V27.8257Z" fill="black"/>
</svg>
