<svg width="70" height="70" viewBox="0 0 70 70" fill="none" xmlns="http://www.w3.org/2000/svg">
<path d="M65.4202 37.0881V6.58178L54.0996 0L4.57983 28.6521V41.3705L54.282 70L65.4202 63.6255V39.1397H63.3686V62.4359L55.4311 66.9785V22.8212L36.0712 33.918L28.1813 29.2992L63.3686 8.85049V37.0882L65.4202 37.0881ZM43.0357 32.2659V38.1091L38.0735 35.1403L43.0357 32.2659ZM43.0357 40.4832V49.5339L25.2752 39.3451L24.2542 41.1246L45.0871 53.076V31.0875L53.3795 26.3722V67.1128L6.63144 40.1848V31.0148L22.3453 40.0295L23.3664 38.2499L7.66038 29.2399L54.0972 2.37166L62.2638 7.11963L24.1094 29.2925L43.0357 40.4832Z" fill="black"/>
</svg>
