<svg width="70" height="70" viewBox="0 0 70 70" fill="none" xmlns="http://www.w3.org/2000/svg">
<g clip-path="url(#clip0_375_21777)">
<path d="M55.4312 23.704V9.52301L38.6743 0L2.32446 20.8913V39.4062L14.6092 46.5291L14.569 60.7054L30.67 70L56.0467 55.8395L55.0455 54.0453L44.0858 60.161L44.1287 45.0454L65.6247 33.1618V48.1421L57.1794 52.8546L58.1806 54.6488L67.6758 49.3504V30.8269L55.4312 23.704ZM64.6094 31.3988L43.1145 43.2585L32.8555 37.3356L54.3506 25.4759L64.6094 31.3988ZM31.8315 23.7464L53.37 11.8628V23.6888L31.798 35.5724L31.8315 23.7464ZM38.68 2.36646L52.2997 10.1067L30.8173 21.9592L17.7332 14.4051L38.68 2.36646ZM4.37237 38.2218V23.2568L16.7547 30.3543V22.6734H14.7001V26.8084L5.41376 21.4856L14.7001 16.1485V20.619H16.7547V16.2127L29.777 23.7311V37.9075L42.0741 45.0304V59.989L29.6945 52.8661V67.0414L16.6672 59.5211V45.3447L4.37237 38.2218ZM41.1032 61.8253L31.7089 67.0675L31.7391 56.4189L41.1032 61.8253Z" fill="black"/>
<path d="M32.9937 8.29126H35.0483V10.3459H32.9937V8.29126Z" fill="black"/>
<path d="M37.1204 8.29126H39.175V10.3459H37.1204V8.29126Z" fill="black"/>
</g>
<defs>
<clipPath id="clip0_375_21777">
<rect width="70" height="70" fill="white"/>
</clipPath>
</defs>
</svg>
