<svg width="256" height="256" viewBox="0 0 256 256" fill="none" xmlns="http://www.w3.org/2000/svg">
<mask id="mask0_2001_47" style="mask-type:alpha" maskUnits="userSpaceOnUse" x="0" y="0" width="256" height="256">
<rect width="256" height="256" fill="#D9D9D9"/>
</mask>
<g mask="url(#mask0_2001_47)">
<path d="M14.8647 94.5227C39.0173 100.619 42.7331 125.002 52.0225 143.29C60.7026 163.465 78.2578 166.297 96.5414 161.937L96.6677 161.224C79.4358 155.951 63.757 142.056 56.7453 124.01C52.6227 113.398 50.421 100.651 41.4679 94.3032C35.8737 90.3369 29.0144 90.0097 22.6753 88.1058C16.3362 86.2039 9.46011 81.2357 9.08481 74.2153C8.60919 77.0337 8.31751 79.8886 8.14844 82.7577C9.12383 88.2724 11.1768 93.1775 14.8647 94.5227Z" fill="#F2B679"/>
<path d="M79.8981 90.4587C85.2042 51.7744 114.081 22.307 145.692 9.04646C146.045 8.69086 146.379 8.32308 146.786 8C126.773 10.477 107.209 19.2103 92.3423 34.072C77.4773 48.9337 67.6212 70.0843 66.8817 92.0965C66.1423 114.109 75.0007 136.615 91.0566 149.916C91.0733 149.656 91.1086 149.394 91.1291 149.133C76.8382 135.828 78.3598 108.97 79.8981 90.4587Z" fill="#068075"/>
<path d="M140.93 25.4545C140.93 19.1636 141.639 13.1185 145.675 9.04443C114.064 22.305 85.1872 51.7724 79.881 90.4567C78.3427 108.968 76.8211 135.826 91.112 149.131C92.6504 129.261 102.514 109.563 116.647 96.9894C121.931 92.2895 127.837 88.4776 133.097 83.7472C138.358 79.0168 143.079 73.1099 144.866 65.9229C146.509 59.3211 145.528 52.2966 144.134 45.6257C142.741 38.9568 140.93 32.2961 140.93 25.4545Z" fill="#F2B679"/>
<path d="M168.724 8.49121C186.065 13.7824 204.323 19.2321 217.718 33.1754C231.946 47.9843 242.963 71.1892 238.781 93.0205C236.672 104.022 231.469 107.795 231.723 119.032C232.303 144.592 264.561 163.259 236.639 165.874C236.639 165.874 233.611 166.323 228.126 167.215C225.925 167.573 227.745 171.663 230.419 176.672C231.6 178.887 231.277 181.671 229.637 183.501C229.194 183.995 228.806 184.465 228.566 184.863C228.089 185.653 228.234 186.683 228.867 187.33C230.229 188.713 230.699 192.186 230.081 194.11C229.282 196.593 227.16 198.219 225.211 199.765C223.264 201.312 221.237 203.179 220.81 205.77C219.97 210.847 230.536 232.136 210.69 230.714C192.18 229.389 181.32 217.673 171.806 220.353C166.165 221.942 159.204 242.255 156.687 248" stroke="black" stroke-miterlimit="10" stroke-linecap="round"/>
<path d="M197.779 93.9198C176.468 81.9028 148.919 82.6099 128.24 95.7587C110.375 107.119 98.2838 127.372 95.876 148.803C97.9865 141.957 101.318 135.319 105.892 129.064C129.39 101.389 163.442 87.1838 197.779 93.9198Z" fill="#068075"/>
<path d="M105.889 129.066C101.315 135.319 97.9834 141.959 95.8728 148.805C95.4771 152.326 95.3136 155.878 95.4604 159.43L96.2667 159.903C105.967 143.457 122.738 131.184 140.574 129.194C151.063 128.026 162.846 129.493 171.039 122.016C176.158 117.344 178.473 110.275 182.008 104.214C185.544 98.1522 191.917 92.4364 198.159 94.1209C198.035 94.0497 197.903 93.9908 197.776 93.9197C163.439 87.1838 129.387 101.389 105.889 129.066Z" fill="#F2B679"/>
<path d="M116.755 36.0444C90.4066 60.6595 78.9527 102.754 88.7122 139.119C92.5172 153.3 99.2966 167.038 98.7207 181.803C98.2767 193.137 93.422 203.839 86.9101 212.67C80.3982 221.501 72.2643 228.706 64.1992 235.84" stroke="black" stroke-miterlimit="10" stroke-linecap="round"/>
<path d="M97.9483 171.001C92.8299 151.679 103.754 135.556 117.753 122.506C131.753 109.459 149.941 103.203 167.876 98.7446" stroke="black" stroke-miterlimit="10" stroke-linecap="round"/>
<path d="M32.1025 112.29C34.8262 124.099 52.4948 147.3 61.5948 154.321C70.6947 161.341 82.7078 162.036 93.7939 160.88" stroke="black" stroke-miterlimit="10" stroke-linecap="round"/>
<path d="M52.0188 143.29C42.7294 125.002 39.0136 100.619 14.861 94.5229C11.1731 93.1778 9.12013 88.2726 8.1466 82.7559C6.74946 106.286 15.4072 130.897 31.1863 146.783C48.8902 164.605 74.8152 170.727 96.4893 162.205L96.5377 161.937C78.2541 166.298 60.6989 163.465 52.0188 143.29Z" fill="#068075"/>
</g>
</svg>
